<svg xmlns="http://www.w3.org/2000/svg" width="512" height="512" viewBox="0 0 512 512">

<rect class="bg" width="512" height="512" rx="115.2"></rect>
<circle cx="318.15" cy="50.14" r="26.62" fill="#e06a4c"></circle><circle cx="384.81" cy="83.81" r="26.62" fill="#e08247"></circle><circle cx="435.94" cy="138.25" r="26.62" fill="#e09e3f"></circle><circle cx="465.36" cy="206.90" r="26.62" fill="#dcbd45"></circle><circle cx="469.53" cy="281.46" r="26.62" fill="#ccd04b"></circle><circle cx="447.94" cy="352.96" r="26.62" fill="#a4c94e"></circle><circle cx="403.21" cy="412.76" r="26.62" fill="#7bbf5e"></circle><circle cx="340.71" cy="453.65" r="26.62" fill="#58b87e"></circle><circle cx="268.00" cy="470.70" r="26.62" fill="#42b6ba"></circle><circle cx="193.85" cy="461.86" r="26.62" fill="#4897d4"></circle><circle cx="127.19" cy="428.19" r="26.62" fill="#5978e0"></circle><circle cx="76.06" cy="373.75" r="26.62" fill="#7562e0"></circle><circle cx="46.64" cy="305.10" r="26.62" fill="#8c5fe0"></circle><circle cx="42.47" cy="230.54" r="26.62" fill="#a55fdc"></circle><circle cx="64.06" cy="159.04" r="26.62" fill="#c45fd0"></circle><circle cx="108.79" cy="99.24" r="26.62" fill="#d65fbd"></circle><circle cx="171.29" cy="58.35" r="26.62" fill="#e05d9a"></circle><circle cx="244.00" cy="41.30" r="26.62" fill="#e05958"></circle><circle cx="287.94" cy="105.76" r="25.60" fill="#e0654c"></circle><circle cx="354.10" cy="137.81" r="25.60" fill="#e08646"></circle><circle cx="397.79" cy="196.93" r="25.60" fill="#deae41"></circle><circle cx="409.00" cy="269.59" r="25.60" fill="#cfd04b"></circle><circle cx="385.16" cy="339.14" r="25.60" fill="#98c751"></circle><circle cx="331.73" cy="389.64" r="25.60" fill="#5fb86b"></circle><circle cx="260.95" cy="409.52" r="25.60" fill="#41b6be"></circle><circle cx="189.04" cy="394.24" r="25.60" fill="#4d87dc"></circle><circle cx="132.47" cy="347.28" r="25.60" fill="#7166e0"></circle><circle cx="104.20" cy="279.42" r="25.60" fill="#915fe0"></circle><circle cx="110.70" cy="206.19" r="25.60" fill="#b85fd5"></circle><circle cx="150.49" cy="144.37" r="25.60" fill="#d65fbd"></circle><circle cx="214.46" cy="108.12" r="25.60" fill="#e05c81"></circle><circle cx="268.20" cy="162.07" r="24.58" fill="#e0604d"></circle><circle cx="331.05" cy="198.21" r="24.58" fill="#e09741"></circle><circle cx="349.93" cy="268.20" r="24.58" fill="#cad04b"></circle><circle cx="313.79" cy="331.05" r="24.58" fill="#6fbc63"></circle><circle cx="243.80" cy="349.93" r="24.58" fill="#43a8cb"></circle><circle cx="180.95" cy="313.79" r="24.58" fill="#6f67e0"></circle><circle cx="162.07" cy="243.80" r="24.58" fill="#a65fdc"></circle><circle cx="198.21" cy="180.95" r="24.58" fill="#da5fb8"></circle></svg>